# xmcd
#
# Track frame offsets:
#	150
#	18195
#	31072
#	54092
#	75119
#	98070
#	115434
#	133899
#	152615
#	166343
#	184961
#	205961
#	221891
#	243212
#	257427
#	278023
#	297573
#	319911
#	339295
#
# Disc length: 4686 seconds
#
# Revision: 0
# Processed by: cddbd v1.5.2PL0 Copyright (c) Steve Scherf et al.
# Submitted via: EasyCDDAExtractor 12.0.1.1
#
DISCID=03124c13
DTITLE=Alan Jackson - Good Time
DYEAR=2009
DGENRE=Country
TTITLE0=Where I Come From
TTITLE1=Laid Back'n Low Key
TTITLE2=Good Time
TTITLE3=Small Town Southern Man
TTITLE4=I Wish I Could Back Up
TTITLE5=Right Where I Want You
TTITLE6=Country Boy
TTITLE7=1976
TTITLE8=Sissy's Song
TTITLE9=Long Long Way
TTITLE10=I Still Like Bologna
TTITLE11=Never Loved Before
TTITLE12=Nothing Left To Do
TTITLE13=Listen To Your Senses
TTITLE14=This Time
TTITLE15=If You Want To Make Me Happy
TTITLE16=If Jesus Walked The World Today
TTITLE17=When The Love Factor's High
TTITLE18=Stand By Your Man
EXTD=
EXTT0=
EXTT1=
EXTT2=
EXTT3=
EXTT4=
EXTT5=
EXTT6=
EXTT7=
EXTT8=
EXTT9=
EXTT10=
EXTT11=
EXTT12=
EXTT13=
EXTT14=
EXTT15=
EXTT16=
EXTT17=
EXTT18=
PLAYORDER=
